<mxfile host="Electron" modified="2024-05-12T20:44:09.463Z" agent="Mozilla/5.0 (Windows NT 10.0; Win64; x64) AppleWebKit/537.36 (KHTML, like Gecko) draw.io/24.2.5 Chrome/120.0.6099.109 Electron/28.1.0 Safari/537.36" etag="yrnltFcBM8qf2ML4UhqZ" version="24.2.5" type="device">
  <diagram name="Pagina-1" id="mD4ny_UwJCW5K_lFAApE">
    <mxGraphModel dx="1455" dy="367" grid="1" gridSize="10" guides="1" tooltips="1" connect="1" arrows="1" fold="1" page="1" pageScale="1" pageWidth="827" pageHeight="1169" math="0" shadow="0">
      <root>
        <mxCell id="0" />
        <mxCell id="1" parent="0" />
        <mxCell id="meR83D9zi9wOWhoupvIP-6" value="&lt;font style=&quot;font-size: 8px;&quot;&gt;Argomento&lt;/font&gt;" style="text;html=1;align=center;verticalAlign=middle;whiteSpace=wrap;rounded=1;strokeColor=none;" vertex="1" parent="1">
          <mxGeometry x="161.2" y="724.1700000000003" width="40" height="19" as="geometry" />
        </mxCell>
        <mxCell id="meR83D9zi9wOWhoupvIP-7" style="edgeStyle=orthogonalEdgeStyle;rounded=0;orthogonalLoop=1;jettySize=auto;html=1;exitX=0.5;exitY=1;exitDx=0;exitDy=0;" edge="1" parent="1">
          <mxGeometry relative="1" as="geometry">
            <mxPoint x="2.7399999999999958" y="703.4500000000002" as="sourcePoint" />
            <mxPoint x="2.7399999999999958" y="703.4500000000002" as="targetPoint" />
          </mxGeometry>
        </mxCell>
        <mxCell id="meR83D9zi9wOWhoupvIP-8" style="edgeStyle=orthogonalEdgeStyle;rounded=0;orthogonalLoop=1;jettySize=auto;html=1;exitX=0.5;exitY=1;exitDx=0;exitDy=0;" edge="1" parent="1">
          <mxGeometry relative="1" as="geometry">
            <mxPoint x="20.739999999999984" y="702.5400000000002" as="sourcePoint" />
            <mxPoint x="20.739999999999984" y="702.5400000000002" as="targetPoint" />
          </mxGeometry>
        </mxCell>
        <mxCell id="meR83D9zi9wOWhoupvIP-20" value="&lt;font style=&quot;font-size: 9px;&quot;&gt;Codice&lt;/font&gt;" style="text;html=1;align=center;verticalAlign=middle;whiteSpace=wrap;rounded=0;" vertex="1" parent="1">
          <mxGeometry x="76.23999999999998" y="678.7500000000003" width="42.67" height="17.9" as="geometry" />
        </mxCell>
        <mxCell id="meR83D9zi9wOWhoupvIP-21" style="edgeStyle=orthogonalEdgeStyle;rounded=0;orthogonalLoop=1;jettySize=auto;html=1;exitX=0.75;exitY=0;exitDx=0;exitDy=0;endArrow=oval;endFill=1;" edge="1" parent="1">
          <mxGeometry relative="1" as="geometry">
            <mxPoint x="99.46999999999987" y="712.7700000000003" as="sourcePoint" />
            <mxPoint x="97.46999999999987" y="696.7700000000003" as="targetPoint" />
          </mxGeometry>
        </mxCell>
        <mxCell id="meR83D9zi9wOWhoupvIP-22" value="&lt;font style=&quot;font-size: 8px;&quot;&gt;Tema&lt;/font&gt;&lt;div style=&quot;line-height: 50%;&quot;&gt;&lt;font style=&quot;font-size: 8px;&quot;&gt;Storico&lt;/font&gt;&lt;/div&gt;" style="text;html=1;align=center;verticalAlign=middle;whiteSpace=wrap;rounded=1;strokeColor=none;" vertex="1" parent="1">
          <mxGeometry x="59.16000000000001" y="804.9600000000002" width="40" height="20" as="geometry" />
        </mxCell>
        <mxCell id="meR83D9zi9wOWhoupvIP-23" style="edgeStyle=orthogonalEdgeStyle;rounded=0;orthogonalLoop=1;jettySize=auto;html=1;exitX=1.002;exitY=0.482;exitDx=0;exitDy=0;endArrow=oval;endFill=0;entryX=-0.112;entryY=0.718;entryDx=0;entryDy=0;entryPerimeter=0;exitPerimeter=0;" edge="1" parent="1">
          <mxGeometry relative="1" as="geometry">
            <mxPoint x="133.94" y="735.7136600000006" as="sourcePoint" />
            <mxPoint x="157.18000000000004" y="735.5900000000004" as="targetPoint" />
            <Array as="points">
              <mxPoint x="147.19000000000003" y="735.5900000000004" />
            </Array>
          </mxGeometry>
        </mxCell>
        <mxCell id="meR83D9zi9wOWhoupvIP-24" style="edgeStyle=orthogonalEdgeStyle;rounded=0;orthogonalLoop=1;jettySize=auto;html=1;exitX=1;exitY=0.5;exitDx=0;exitDy=0;entryX=0.25;entryY=1;entryDx=0;entryDy=0;endArrow=oval;endFill=0;" edge="1" parent="1">
          <mxGeometry relative="1" as="geometry">
            <mxPoint x="137.9599999999998" y="794.1950000000003" as="sourcePoint" />
            <mxPoint x="173.9599999999998" y="786.5700000000003" as="targetPoint" />
          </mxGeometry>
        </mxCell>
        <mxCell id="meR83D9zi9wOWhoupvIP-25" value="" style="shape=singleArrow;direction=north;whiteSpace=wrap;html=1;arrowWidth=0.3808905843098993;arrowSize=0.6576580700573631;" vertex="1" parent="1">
          <mxGeometry x="79.1599999999999" y="743.1700000000002" width="30" height="18" as="geometry" />
        </mxCell>
        <mxCell id="meR83D9zi9wOWhoupvIP-26" value="Discussione Virtuale" style="whiteSpace=wrap;html=1;align=center;" vertex="1" parent="1">
          <mxGeometry x="-0.5099999999999723" y="773.5300000000002" width="81.41" height="30.16" as="geometry" />
        </mxCell>
        <mxCell id="meR83D9zi9wOWhoupvIP-27" value="Nuova&lt;div&gt;Teoria&lt;/div&gt;" style="whiteSpace=wrap;html=1;align=center;" vertex="1" parent="1">
          <mxGeometry x="118.90999999999988" y="773.6100000000001" width="77.5" height="30" as="geometry" />
        </mxCell>
        <mxCell id="meR83D9zi9wOWhoupvIP-28" value="" style="endArrow=none;html=1;rounded=0;exitX=0.475;exitY=0.003;exitDx=0;exitDy=0;exitPerimeter=0;" edge="1" parent="1">
          <mxGeometry width="50" height="50" relative="1" as="geometry">
            <mxPoint x="31.629750000000065" y="773.6104800000002" as="sourcePoint" />
            <mxPoint x="31.829999999999906" y="760.3900000000003" as="targetPoint" />
          </mxGeometry>
        </mxCell>
        <mxCell id="meR83D9zi9wOWhoupvIP-29" value="" style="endArrow=none;html=1;rounded=0;" edge="1" parent="1">
          <mxGeometry width="50" height="50" relative="1" as="geometry">
            <mxPoint x="32.159999999999904" y="761.1700000000003" as="sourcePoint" />
            <mxPoint x="156.15999999999983" y="761.1700000000003" as="targetPoint" />
          </mxGeometry>
        </mxCell>
        <mxCell id="meR83D9zi9wOWhoupvIP-30" value="" style="endArrow=none;html=1;rounded=0;entryX=0.476;entryY=-0.004;entryDx=0;entryDy=0;entryPerimeter=0;" edge="1" parent="1">
          <mxGeometry width="50" height="50" relative="1" as="geometry">
            <mxPoint x="156" y="760.6000000000003" as="sourcePoint" />
            <mxPoint x="156" y="773.6100000000001" as="targetPoint" />
          </mxGeometry>
        </mxCell>
        <mxCell id="meR83D9zi9wOWhoupvIP-31" style="edgeStyle=orthogonalEdgeStyle;rounded=0;orthogonalLoop=1;jettySize=auto;html=1;exitX=0.75;exitY=1;exitDx=0;exitDy=0;entryX=0.578;entryY=0.124;entryDx=0;entryDy=0;entryPerimeter=0;endArrow=oval;endFill=0;" edge="1" parent="1">
          <mxGeometry relative="1" as="geometry">
            <mxPoint x="63.43999999999997" y="803.6100000000002" as="sourcePoint" />
            <mxPoint x="63.55999999999986" y="814.0788482490276" as="targetPoint" />
          </mxGeometry>
        </mxCell>
        <mxCell id="meR83D9zi9wOWhoupvIP-32" style="edgeStyle=orthogonalEdgeStyle;rounded=0;orthogonalLoop=1;jettySize=auto;html=1;exitX=0.75;exitY=1;exitDx=0;exitDy=0;entryX=0.578;entryY=0.124;entryDx=0;entryDy=0;entryPerimeter=0;endArrow=oval;endFill=0;" edge="1" parent="1">
          <mxGeometry relative="1" as="geometry">
            <mxPoint x="179.56000000000003" y="803.6100000000001" as="sourcePoint" />
            <mxPoint x="179.67999999999992" y="814.0788482490275" as="targetPoint" />
          </mxGeometry>
        </mxCell>
        <mxCell id="meR83D9zi9wOWhoupvIP-33" value="&lt;span style=&quot;font-size: 8px;&quot;&gt;Descrizione&lt;/span&gt;" style="text;html=1;align=center;verticalAlign=middle;whiteSpace=wrap;rounded=1;strokeColor=none;" vertex="1" parent="1">
          <mxGeometry x="161.20000000000002" y="809.0900000000001" width="40" height="20" as="geometry" />
        </mxCell>
        <mxCell id="meR83D9zi9wOWhoupvIP-34" style="edgeStyle=orthogonalEdgeStyle;rounded=0;orthogonalLoop=1;jettySize=auto;html=1;exitX=1.002;exitY=0.482;exitDx=0;exitDy=0;endArrow=oval;endFill=0;entryX=-0.112;entryY=0.718;entryDx=0;entryDy=0;entryPerimeter=0;exitPerimeter=0;" edge="1" parent="1">
          <mxGeometry relative="1" as="geometry">
            <mxPoint x="134.82000000000002" y="714.8236600000005" as="sourcePoint" />
            <mxPoint x="158.06000000000003" y="714.7000000000003" as="targetPoint" />
            <Array as="points">
              <mxPoint x="148.07000000000002" y="714.7000000000003" />
            </Array>
          </mxGeometry>
        </mxCell>
        <mxCell id="meR83D9zi9wOWhoupvIP-35" value="&lt;font style=&quot;font-size: 8px;&quot;&gt;Titolo&lt;/font&gt;" style="text;html=1;align=center;verticalAlign=middle;whiteSpace=wrap;rounded=1;strokeColor=none;" vertex="1" parent="1">
          <mxGeometry x="153.81000000000003" y="702.9900000000002" width="40" height="19" as="geometry" />
        </mxCell>
        <mxCell id="meR83D9zi9wOWhoupvIP-36" value="Conversazione" style="whiteSpace=wrap;html=1;align=center;" vertex="1" parent="1">
          <mxGeometry x="52.65999999999999" y="707.5400000000003" width="83" height="35.63" as="geometry" />
        </mxCell>
        <mxCell id="meR83D9zi9wOWhoupvIP-37" value="&lt;span style=&quot;font-size: 8px;&quot;&gt;Motivo&lt;/span&gt;" style="text;html=1;align=center;verticalAlign=middle;whiteSpace=wrap;rounded=1;strokeColor=none;" vertex="1" parent="1">
          <mxGeometry x="111.76999999999995" y="809.7700000000002" width="40" height="20" as="geometry" />
        </mxCell>
        <mxCell id="meR83D9zi9wOWhoupvIP-38" style="edgeStyle=orthogonalEdgeStyle;rounded=0;orthogonalLoop=1;jettySize=auto;html=1;exitX=0.75;exitY=1;exitDx=0;exitDy=0;entryX=0.578;entryY=0.124;entryDx=0;entryDy=0;entryPerimeter=0;endArrow=oval;endFill=0;" edge="1" parent="1">
          <mxGeometry relative="1" as="geometry">
            <mxPoint x="131.80000000000004" y="803.6100000000001" as="sourcePoint" />
            <mxPoint x="131.91999999999993" y="814.0788482490275" as="targetPoint" />
          </mxGeometry>
        </mxCell>
      </root>
    </mxGraphModel>
  </diagram>
</mxfile>
